<svg width="456" height="120" viewBox="0 0 456 120" fill="none" xmlns="http://www.w3.org/2000/svg">
<path d="M40 80.5L133 37L227.5 80.5L321.5 37L416 80.5" stroke="white" stroke-width="14"/>
<circle cx="40" cy="80" r="40" fill="white"/>
<circle cx="134" cy="40" r="40" fill="white"/>
<circle cx="228" cy="80" r="40" fill="white"/>
<circle cx="322" cy="40" r="40" fill="white"/>
<circle cx="416" cy="80" r="40" fill="white"/>
<path d="M39.8597 106.368C37.3157 106.368 35.0837 106.056 33.1637 105.432C31.2917 104.808 29.6837 104.064 28.3397 103.2C27.0437 102.288 26.0117 101.4 25.2437 100.536C24.4757 99.672 23.9477 99.024 23.6597 98.592C22.8437 97.536 22.3397 96.624 22.1477 95.856C21.9557 95.04 22.0517 94.224 22.4357 93.408C22.8677 92.592 23.5877 91.704 24.5957 90.744C25.6037 89.88 26.5397 89.424 27.4037 89.376C28.3157 89.28 29.2037 89.496 30.0677 90.024C30.9317 90.552 31.7717 91.296 32.5877 92.256C33.7397 93.648 34.8677 94.632 35.9717 95.208C37.1237 95.736 38.3237 96 39.5717 96C41.1557 96 42.4997 95.808 43.6037 95.424C44.7077 95.04 45.5477 94.44 46.1237 93.624C46.6997 92.76 46.9877 91.68 46.9877 90.384C46.9877 89.328 46.5797 88.488 45.7637 87.864C44.9957 87.192 43.9397 86.616 42.5957 86.136C41.2997 85.656 39.8357 85.2 38.2037 84.768C36.6197 84.288 35.0357 83.736 33.4517 83.112C32.3477 82.728 31.2917 82.248 30.2837 81.672C29.2757 81.096 28.3157 80.448 27.4037 79.728C26.4917 79.008 25.6997 78.144 25.0277 77.136C24.4037 76.128 23.8997 74.976 23.5157 73.68C23.1797 72.384 23.0117 70.896 23.0117 69.216C23.0117 66.384 23.7077 63.864 25.0997 61.656C26.4917 59.448 28.4117 57.72 30.8597 56.472C33.3557 55.176 36.2117 54.528 39.4277 54.528C41.5877 54.528 43.4597 54.72 45.0437 55.104C46.6757 55.488 48.0437 55.944 49.1477 56.472C50.2517 57 51.1157 57.528 51.7397 58.056C52.4117 58.536 52.8677 58.92 53.1077 59.208C54.4517 60.456 55.1957 61.536 55.3397 62.448C55.4837 63.312 54.9797 64.536 53.8277 66.12C52.6277 67.8 51.4277 68.736 50.2277 68.928C49.0757 69.12 47.7557 68.712 46.2677 67.704C45.6917 67.176 45.1157 66.696 44.5397 66.264C43.9637 65.832 43.2677 65.496 42.4517 65.256C41.6837 64.968 40.6517 64.824 39.3557 64.824C38.5877 64.824 37.8677 64.944 37.1957 65.184C36.5237 65.376 35.9477 65.664 35.4677 66.048C34.9877 66.432 34.6037 66.912 34.3157 67.488C34.0277 68.016 33.8837 68.616 33.8837 69.288C33.8837 70.392 34.2437 71.28 34.9637 71.952C35.7317 72.624 36.7157 73.176 37.9157 73.608C39.1637 73.992 40.5317 74.376 42.0197 74.76C43.5557 75.096 45.1157 75.504 46.6997 75.984C48.1397 76.464 49.5317 77.064 50.8757 77.784C52.2197 78.456 53.4197 79.32 54.4757 80.376C55.5317 81.432 56.3717 82.752 56.9957 84.336C57.6677 85.92 58.0037 87.864 58.0037 90.168C58.0037 93.048 57.4517 95.52 56.3477 97.584C55.2437 99.648 53.7797 101.328 51.9557 102.624C50.1317 103.92 48.1637 104.856 46.0517 105.432C43.9397 106.056 41.8757 106.368 39.8597 106.368Z" fill="black"/>
<path d="M151.12 15.248C151.936 15.248 152.68 15.32 153.352 15.464C154.024 15.608 154.576 16.016 155.008 16.688C155.488 17.312 155.728 18.416 155.728 20C155.728 21.488 155.488 22.568 155.008 23.24C154.576 23.912 154 24.32 153.28 24.464C152.56 24.608 151.792 24.68 150.976 24.68H139.384V60.32C139.384 61.232 139.288 62.096 139.096 62.912C138.952 63.728 138.496 64.4 137.728 64.928C137.008 65.408 135.76 65.648 133.984 65.648C132.256 65.648 131.008 65.408 130.24 64.928C129.472 64.4 129.016 63.728 128.872 62.912C128.728 62.048 128.656 61.16 128.656 60.248V24.68H116.92C116.152 24.68 115.408 24.608 114.688 24.464C113.968 24.272 113.392 23.864 112.96 23.24C112.528 22.568 112.312 21.464 112.312 19.928C112.312 18.392 112.528 17.312 112.96 16.688C113.392 16.016 113.968 15.608 114.688 15.464C115.408 15.32 116.152 15.248 116.92 15.248H151.12Z" fill="black"/>
<path d="M215.099 105.648C213.371 105.648 212.123 105.408 211.355 104.928C210.587 104.4 210.107 103.704 209.915 102.84C209.771 101.976 209.699 101.088 209.699 100.176V60.792C209.699 58.68 210.107 57.24 210.923 56.472C211.739 55.704 213.203 55.32 215.315 55.32H242.531C243.491 55.32 244.379 55.416 245.195 55.608C246.011 55.752 246.683 56.208 247.211 56.976C247.739 57.744 248.003 59.04 248.003 60.864C248.003 62.592 247.739 63.84 247.211 64.608C246.683 65.376 245.987 65.856 245.123 66.048C244.307 66.192 243.419 66.264 242.459 66.264H220.643V75.552H235.475C236.435 75.552 237.275 75.624 237.995 75.768C238.763 75.912 239.363 76.32 239.795 76.992C240.227 77.664 240.443 78.792 240.443 80.376C240.443 81.864 240.227 82.944 239.795 83.616C239.363 84.288 238.763 84.696 237.995 84.84C237.227 84.984 236.339 85.056 235.331 85.056H220.643V94.704H242.531C243.491 94.704 244.379 94.8 245.195 94.992C246.011 95.184 246.683 95.664 247.211 96.432C247.739 97.152 248.003 98.424 248.003 100.248C248.003 101.976 247.739 103.224 247.211 103.992C246.683 104.76 245.987 105.216 245.123 105.36C244.307 105.552 243.419 105.648 242.459 105.648H215.099Z" fill="black"/>
<path d="M309.304 65.648C307.528 65.648 306.256 65.384 305.488 64.856C304.768 64.328 304.312 63.632 304.12 62.768C303.928 61.904 303.832 61.016 303.832 60.104V20.792C303.832 19.88 303.928 19.016 304.12 18.2C304.312 17.336 304.792 16.64 305.56 16.112C306.328 15.584 307.6 15.32 309.376 15.32H324.136C326.152 15.32 328.168 15.68 330.184 16.4C332.248 17.12 334.144 18.248 335.872 19.784C337.648 21.272 339.064 23.12 340.12 25.328C341.224 27.536 341.776 30.128 341.776 33.104C341.776 36.032 341.224 38.6 340.12 40.808C339.064 43.016 337.648 44.864 335.872 46.352C334.144 47.792 332.248 48.896 330.184 49.664C328.12 50.384 326.08 50.744 324.064 50.744H314.848V60.176C314.848 61.088 314.752 61.976 314.56 62.84C314.368 63.656 313.888 64.328 313.12 64.856C312.352 65.384 311.08 65.648 309.304 65.648ZM314.848 39.8H324.136C325.192 39.8 326.224 39.584 327.232 39.152C328.288 38.672 329.152 37.928 329.824 36.92C330.544 35.912 330.904 34.616 330.904 33.032C330.904 31.688 330.616 30.512 330.04 29.504C329.464 28.496 328.648 27.704 327.592 27.128C326.584 26.552 325.408 26.264 324.064 26.264H314.848V39.8Z" fill="black"/>
<path d="M415.86 106.368C413.316 106.368 411.084 106.056 409.164 105.432C407.292 104.808 405.684 104.064 404.34 103.2C403.044 102.288 402.012 101.4 401.244 100.536C400.476 99.672 399.948 99.024 399.66 98.592C398.844 97.536 398.34 96.624 398.148 95.856C397.956 95.04 398.052 94.224 398.436 93.408C398.868 92.592 399.588 91.704 400.596 90.744C401.604 89.88 402.54 89.424 403.404 89.376C404.316 89.28 405.204 89.496 406.068 90.024C406.932 90.552 407.772 91.296 408.588 92.256C409.74 93.648 410.868 94.632 411.972 95.208C413.124 95.736 414.324 96 415.572 96C417.156 96 418.5 95.808 419.604 95.424C420.708 95.04 421.548 94.44 422.124 93.624C422.7 92.76 422.988 91.68 422.988 90.384C422.988 89.328 422.58 88.488 421.764 87.864C420.996 87.192 419.94 86.616 418.596 86.136C417.3 85.656 415.836 85.2 414.204 84.768C412.62 84.288 411.036 83.736 409.452 83.112C408.348 82.728 407.292 82.248 406.284 81.672C405.276 81.096 404.316 80.448 403.404 79.728C402.492 79.008 401.7 78.144 401.028 77.136C400.404 76.128 399.9 74.976 399.516 73.68C399.18 72.384 399.012 70.896 399.012 69.216C399.012 66.384 399.708 63.864 401.1 61.656C402.492 59.448 404.412 57.72 406.86 56.472C409.356 55.176 412.212 54.528 415.428 54.528C417.588 54.528 419.46 54.72 421.044 55.104C422.676 55.488 424.044 55.944 425.148 56.472C426.252 57 427.116 57.528 427.74 58.056C428.412 58.536 428.868 58.92 429.108 59.208C430.452 60.456 431.196 61.536 431.34 62.448C431.484 63.312 430.98 64.536 429.828 66.12C428.628 67.8 427.428 68.736 426.228 68.928C425.076 69.12 423.756 68.712 422.268 67.704C421.692 67.176 421.116 66.696 420.54 66.264C419.964 65.832 419.268 65.496 418.452 65.256C417.684 64.968 416.652 64.824 415.356 64.824C414.588 64.824 413.868 64.944 413.196 65.184C412.524 65.376 411.948 65.664 411.468 66.048C410.988 66.432 410.604 66.912 410.316 67.488C410.028 68.016 409.884 68.616 409.884 69.288C409.884 70.392 410.244 71.28 410.964 71.952C411.732 72.624 412.716 73.176 413.916 73.608C415.164 73.992 416.532 74.376 418.02 74.76C419.556 75.096 421.116 75.504 422.7 75.984C424.14 76.464 425.532 77.064 426.876 77.784C428.22 78.456 429.42 79.32 430.476 80.376C431.532 81.432 432.372 82.752 432.996 84.336C433.668 85.92 434.004 87.864 434.004 90.168C434.004 93.048 433.452 95.52 432.348 97.584C431.244 99.648 429.78 101.328 427.956 102.624C426.132 103.92 424.164 104.856 422.052 105.432C419.94 106.056 417.876 106.368 415.86 106.368Z" fill="black"/>
</svg>
