<svg width="200" height="52" viewBox="0 0 200 52" fill="none" xmlns="http://www.w3.org/2000/svg">
<path d="M17.5589 51.33C15.0855 51.33 12.9155 51.0267 11.0489 50.42C9.22888 49.8133 7.66554 49.09 6.35887 48.25C5.09887 47.3633 4.09554 46.5 3.34887 45.66C2.60221 44.82 2.08887 44.19 1.80887 43.77C1.01554 42.7433 0.525537 41.8567 0.33887 41.11C0.152204 40.3167 0.245536 39.5233 0.618869 38.73C1.03887 37.9367 1.73887 37.0733 2.71887 36.14C3.69887 35.3 4.60887 34.8567 5.44887 34.81C6.33554 34.7167 7.19887 34.9267 8.03887 35.44C8.87887 35.9533 9.69553 36.6767 10.4889 37.61C11.6089 38.9633 12.7055 39.92 13.7789 40.48C14.8989 40.9933 16.0655 41.25 17.2789 41.25C18.8189 41.25 20.1255 41.0633 21.1989 40.69C22.2722 40.3167 23.0889 39.7333 23.6489 38.94C24.2089 38.1 24.4889 37.05 24.4889 35.79C24.4889 34.7633 24.0922 33.9467 23.2989 33.34C22.5522 32.6867 21.5255 32.1267 20.2189 31.66C18.9589 31.1933 17.5355 30.75 15.9489 30.33C14.4089 29.8633 12.8689 29.3267 11.3289 28.72C10.2555 28.3467 9.22887 27.88 8.24887 27.32C7.26887 26.76 6.33554 26.13 5.44887 25.43C4.5622 24.73 3.79221 23.89 3.13887 22.91C2.53221 21.93 2.04221 20.81 1.66887 19.55C1.34221 18.29 1.17887 16.8433 1.17887 15.21C1.17887 12.4567 1.85554 10.0067 3.20887 7.85999C4.56221 5.71333 6.42887 4.03333 8.80887 2.81999C11.2355 1.55999 14.0122 0.929993 17.1389 0.929993C19.2389 0.929993 21.0589 1.11666 22.5989 1.48999C24.1855 1.86332 25.5155 2.30666 26.5889 2.81999C27.6622 3.33332 28.5022 3.84666 29.1089 4.35999C29.7622 4.82666 30.2055 5.19999 30.4389 5.47999C31.7455 6.69333 32.4689 7.74333 32.6089 8.62999C32.7489 9.46999 32.2589 10.66 31.1389 12.2C29.9722 13.8333 28.8055 14.7433 27.6389 14.93C26.5189 15.1167 25.2355 14.72 23.7889 13.74C23.2289 13.2267 22.6689 12.76 22.1089 12.34C21.5489 11.92 20.8722 11.5933 20.0789 11.36C19.3322 11.08 18.3289 10.94 17.0689 10.94C16.3222 10.94 15.6222 11.0567 14.9689 11.29C14.3155 11.4767 13.7555 11.7567 13.2889 12.13C12.8222 12.5033 12.4489 12.97 12.1689 13.53C11.8889 14.0433 11.7489 14.6267 11.7489 15.28C11.7489 16.3533 12.0989 17.2167 12.7989 17.87C13.5455 18.5233 14.5022 19.06 15.6689 19.48C16.8822 19.8533 18.2122 20.2267 19.6589 20.6C21.1522 20.9267 22.6689 21.3233 24.2089 21.79C25.6089 22.2567 26.9622 22.84 28.2689 23.54C29.5755 24.1933 30.7422 25.0333 31.7689 26.06C32.7955 27.0867 33.6122 28.37 34.2189 29.91C34.8722 31.45 35.1989 33.34 35.1989 35.58C35.1989 38.38 34.6622 40.7833 33.5889 42.79C32.5155 44.7967 31.0922 46.43 29.3189 47.69C27.5455 48.95 25.6322 49.86 23.5789 50.42C21.5255 51.0267 19.5189 51.33 17.5589 51.33Z" fill="black"/>
<path d="M72.6554 1.62999C73.4488 1.62999 74.1721 1.69999 74.8254 1.83999C75.4788 1.97999 76.0154 2.37666 76.4354 3.02999C76.9021 3.63666 77.1354 4.70999 77.1354 6.24999C77.1354 7.69666 76.9021 8.74666 76.4354 9.39999C76.0154 10.0533 75.4554 10.45 74.7554 10.59C74.0554 10.73 73.3088 10.8 72.5154 10.8H61.2454V45.45C61.2454 46.3367 61.1521 47.1767 60.9654 47.97C60.8254 48.7633 60.3821 49.4167 59.6354 49.93C58.9354 50.3967 57.7221 50.63 55.9954 50.63C54.3154 50.63 53.1021 50.3967 52.3554 49.93C51.6088 49.4167 51.1654 48.7633 51.0254 47.97C50.8854 47.13 50.8154 46.2667 50.8154 45.38V10.8H39.4054C38.6588 10.8 37.9354 10.73 37.2354 10.59C36.5354 10.4033 35.9754 10.0067 35.5554 9.39999C35.1354 8.74666 34.9254 7.67332 34.9254 6.17999C34.9254 4.68666 35.1354 3.63666 35.5554 3.02999C35.9754 2.37666 36.5354 1.97999 37.2354 1.83999C37.9354 1.69999 38.6588 1.62999 39.4054 1.62999H72.6554Z" fill="black"/>
<path d="M129.971 50.63C128.244 50.63 127.007 50.3733 126.261 49.86C125.561 49.3467 125.117 48.67 124.931 47.83C124.744 46.99 124.651 46.1267 124.651 45.24V7.01999C124.651 6.13333 124.744 5.29333 124.931 4.49999C125.117 3.65999 125.584 2.98333 126.331 2.46999C127.077 1.95666 128.314 1.69999 130.041 1.69999H144.391C146.351 1.69999 148.311 2.04999 150.271 2.74999C152.277 3.44999 154.121 4.54666 155.801 6.03999C157.527 7.48666 158.904 9.28333 159.931 11.43C161.004 13.5767 161.541 16.0967 161.541 18.99C161.541 21.8367 161.004 24.3333 159.931 26.48C158.904 28.6267 157.527 30.4233 155.801 31.87C154.121 33.27 152.277 34.3433 150.271 35.09C148.264 35.79 146.281 36.14 144.321 36.14H135.361V45.31C135.361 46.1967 135.267 47.06 135.081 47.9C134.894 48.6933 134.427 49.3467 133.681 49.86C132.934 50.3733 131.697 50.63 129.971 50.63ZM135.361 25.5H144.391C145.417 25.5 146.421 25.29 147.401 24.87C148.427 24.4033 149.267 23.68 149.921 22.7C150.621 21.72 150.971 20.46 150.971 18.92C150.971 17.6133 150.691 16.47 150.131 15.49C149.571 14.51 148.777 13.74 147.751 13.18C146.771 12.62 145.627 12.34 144.321 12.34H135.361V25.5Z" fill="black"/>
<path d="M182.168 51.33C179.695 51.33 177.525 51.0267 175.658 50.42C173.838 49.8133 172.275 49.09 170.968 48.25C169.708 47.3633 168.705 46.5 167.958 45.66C167.212 44.82 166.698 44.19 166.418 43.77C165.625 42.7433 165.135 41.8567 164.948 41.11C164.762 40.3167 164.855 39.5233 165.228 38.73C165.648 37.9367 166.348 37.0733 167.328 36.14C168.308 35.3 169.218 34.8567 170.058 34.81C170.945 34.7167 171.808 34.9267 172.648 35.44C173.488 35.9533 174.305 36.6767 175.098 37.61C176.218 38.9633 177.315 39.92 178.388 40.48C179.508 40.9933 180.675 41.25 181.888 41.25C183.428 41.25 184.735 41.0633 185.808 40.69C186.882 40.3167 187.698 39.7333 188.258 38.94C188.818 38.1 189.098 37.05 189.098 35.79C189.098 34.7633 188.702 33.9467 187.908 33.34C187.162 32.6867 186.135 32.1267 184.828 31.66C183.568 31.1933 182.145 30.75 180.558 30.33C179.018 29.8633 177.478 29.3267 175.938 28.72C174.865 28.3467 173.838 27.88 172.858 27.32C171.878 26.76 170.945 26.13 170.058 25.43C169.172 24.73 168.402 23.89 167.748 22.91C167.142 21.93 166.652 20.81 166.278 19.55C165.952 18.29 165.788 16.8433 165.788 15.21C165.788 12.4567 166.465 10.0067 167.818 7.85999C169.172 5.71333 171.038 4.03333 173.418 2.81999C175.845 1.55999 178.622 0.929993 181.748 0.929993C183.848 0.929993 185.668 1.11666 187.208 1.48999C188.795 1.86332 190.125 2.30666 191.198 2.81999C192.272 3.33332 193.112 3.84666 193.718 4.35999C194.372 4.82666 194.815 5.19999 195.048 5.47999C196.355 6.69333 197.078 7.74333 197.218 8.62999C197.358 9.46999 196.868 10.66 195.748 12.2C194.582 13.8333 193.415 14.7433 192.248 14.93C191.128 15.1167 189.845 14.72 188.398 13.74C187.838 13.2267 187.278 12.76 186.718 12.34C186.158 11.92 185.482 11.5933 184.688 11.36C183.942 11.08 182.938 10.94 181.678 10.94C180.932 10.94 180.232 11.0567 179.578 11.29C178.925 11.4767 178.365 11.7567 177.898 12.13C177.432 12.5033 177.058 12.97 176.778 13.53C176.498 14.0433 176.358 14.6267 176.358 15.28C176.358 16.3533 176.708 17.2167 177.408 17.87C178.155 18.5233 179.112 19.06 180.278 19.48C181.492 19.8533 182.822 20.2267 184.268 20.6C185.762 20.9267 187.278 21.3233 188.818 21.79C190.218 22.2567 191.572 22.84 192.878 23.54C194.185 24.1933 195.352 25.0333 196.378 26.06C197.405 27.0867 198.222 28.37 198.828 29.91C199.482 31.45 199.808 33.34 199.808 35.58C199.808 38.38 199.272 40.7833 198.198 42.79C197.125 44.7967 195.702 46.43 193.928 47.69C192.155 48.95 190.242 49.86 188.188 50.42C186.135 51.0267 184.128 51.33 182.168 51.33Z" fill="black"/>
<path fill-rule="evenodd" clip-rule="evenodd" d="M81 7.5C81 4.18629 83.6863 1.5 87 1.5H115C118.314 1.5 121 4.18629 121 7.5C121 10.8137 118.314 13.5 115 13.5H87C83.6863 13.5 81 10.8137 81 7.5ZM77.5 25.5C77.5 22.1863 80.1863 19.5 83.5 19.5H111.5C114.814 19.5 117.5 22.1863 117.5 25.5C117.5 28.8137 114.814 31.5 111.5 31.5H83.5C80.1863 31.5 77.5 28.8137 77.5 25.5ZM73.5 43.5C73.5 40.1863 76.1863 37.5 79.5 37.5H107.5C110.814 37.5 113.5 40.1863 113.5 43.5C113.5 46.8137 110.814 49.5 107.5 49.5H79.5C76.1863 49.5 73.5 46.8137 73.5 43.5Z" fill="black"/>
</svg>
