<svg width="48" height="48" viewBox="0 0 48 48" fill="none" xmlns="http://www.w3.org/2000/svg">
<path fill-rule="evenodd" clip-rule="evenodd" d="M7.5 6C7.5 2.68629 10.1863 0 13.5 0H41.5C44.8137 0 47.5 2.68629 47.5 6C47.5 9.31371 44.8137 12 41.5 12H13.5C10.1863 12 7.5 9.31371 7.5 6ZM4 24C4 20.6863 6.68629 18 10 18H38C41.3137 18 44 20.6863 44 24C44 27.3137 41.3137 30 38 30H10C6.68629 30 4 27.3137 4 24ZM0 42C0 38.6863 2.68629 36 6 36H34C37.3137 36 40 38.6863 40 42C40 45.3137 37.3137 48 34 48H6C2.68629 48 0 45.3137 0 42Z" fill="#8FCAF9"/>
</svg>
