<svg width="200" height="51" viewBox="0 0 200 51" fill="none" xmlns="http://www.w3.org/2000/svg">
<path d="M17.3133 50.4C14.84 50.4 12.67 50.0967 10.8033 49.49C8.98334 48.8833 7.42 48.16 6.11334 47.32C4.85334 46.4333 3.85 45.57 3.10334 44.73C2.35667 43.89 1.84333 43.26 1.56333 42.84C0.770001 41.8133 0.28 40.9267 0.0933336 40.18C-0.093333 39.3867 -8.9407e-07 38.5933 0.373332 37.8C0.793332 37.0067 1.49333 36.1433 2.47333 35.21C3.45333 34.37 4.36333 33.9267 5.20333 33.88C6.09 33.7867 6.95333 33.9967 7.79333 34.51C8.63333 35.0233 9.44999 35.7467 10.2433 36.68C11.3633 38.0333 12.46 38.99 13.5333 39.55C14.6533 40.0633 15.82 40.32 17.0333 40.32C18.5733 40.32 19.88 40.1333 20.9533 39.76C22.0267 39.3867 22.8433 38.8033 23.4033 38.01C23.9633 37.17 24.2433 36.12 24.2433 34.86C24.2433 33.8333 23.8467 33.0167 23.0533 32.41C22.3067 31.7567 21.28 31.1967 19.9733 30.73C18.7133 30.2633 17.29 29.82 15.7033 29.4C14.1633 28.9333 12.6233 28.3967 11.0833 27.79C10.01 27.4167 8.98334 26.95 8.00334 26.39C7.02334 25.83 6.09 25.2 5.20333 24.5C4.31667 23.8 3.54667 22.96 2.89334 21.98C2.28667 21 1.79667 19.88 1.42334 18.62C1.09667 17.36 0.93333 15.9133 0.93333 14.28C0.93333 11.5267 1.61 9.07667 2.96334 6.93C4.31667 4.78333 6.18333 3.10333 8.56333 1.89C10.99 0.629999 13.7667 0 16.8933 0C18.9933 0 20.8133 0.186665 22.3533 0.559999C23.94 0.933331 25.27 1.37666 26.3433 1.89C27.4167 2.40333 28.2567 2.91667 28.8633 3.43C29.5167 3.89667 29.96 4.27 30.1933 4.55C31.5 5.76333 32.2233 6.81333 32.3633 7.7C32.5033 8.54 32.0133 9.73 30.8933 11.27C29.7267 12.9033 28.56 13.8133 27.3933 14C26.2733 14.1867 24.99 13.79 23.5433 12.81C22.9833 12.2967 22.4233 11.83 21.8633 11.41C21.3033 10.99 20.6267 10.6633 19.8333 10.43C19.0867 10.15 18.0833 10.01 16.8233 10.01C16.0767 10.01 15.3767 10.1267 14.7233 10.36C14.07 10.5467 13.51 10.8267 13.0433 11.2C12.5767 11.5733 12.2033 12.04 11.9233 12.6C11.6433 13.1133 11.5033 13.6967 11.5033 14.35C11.5033 15.4233 11.8533 16.2867 12.5533 16.94C13.3 17.5933 14.2567 18.13 15.4233 18.55C16.6367 18.9233 17.9667 19.2967 19.4133 19.67C20.9067 19.9967 22.4233 20.3933 23.9633 20.86C25.3633 21.3267 26.7167 21.91 28.0233 22.61C29.33 23.2633 30.4967 24.1033 31.5233 25.13C32.55 26.1567 33.3667 27.44 33.9733 28.98C34.6267 30.52 34.9533 32.41 34.9533 34.65C34.9533 37.45 34.4167 39.8533 33.3433 41.86C32.27 43.8667 30.8467 45.5 29.0733 46.76C27.3 48.02 25.3867 48.93 23.3333 49.49C21.28 50.0967 19.2733 50.4 17.3133 50.4Z" fill="#8FCAF9"/>
<path d="M72.4099 0.699999C73.2032 0.699999 73.9266 0.769999 74.5799 0.91C75.2332 1.05 75.7699 1.44666 76.1899 2.1C76.6566 2.70666 76.8899 3.78 76.8899 5.32C76.8899 6.76667 76.6566 7.81667 76.1899 8.47C75.7699 9.12333 75.2099 9.52 74.5099 9.66C73.8099 9.8 73.0632 9.87 72.2699 9.87H60.9999V44.52C60.9999 45.4067 60.9066 46.2467 60.7199 47.04C60.5799 47.8333 60.1366 48.4867 59.3899 49C58.6899 49.4667 57.4766 49.7 55.7499 49.7C54.0699 49.7 52.8566 49.4667 52.1099 49C51.3632 48.4867 50.9199 47.8333 50.7799 47.04C50.6399 46.2 50.5699 45.3367 50.5699 44.45V9.87H39.1599C38.4132 9.87 37.6899 9.8 36.9899 9.66C36.2899 9.47333 35.7299 9.07667 35.3099 8.47C34.8899 7.81667 34.6799 6.74333 34.6799 5.25C34.6799 3.75666 34.8899 2.70666 35.3099 2.1C35.7299 1.44666 36.2899 1.05 36.9899 0.91C37.6899 0.769999 38.4132 0.699999 39.1599 0.699999H72.4099Z" fill="#8FCAF9"/>
<path d="M129.725 49.7C127.998 49.7 126.762 49.4433 126.015 48.93C125.315 48.4167 124.872 47.74 124.685 46.9C124.498 46.06 124.405 45.1967 124.405 44.31V6.09C124.405 5.20333 124.498 4.36333 124.685 3.57C124.872 2.73 125.338 2.05333 126.085 1.54C126.832 1.02667 128.068 0.769999 129.795 0.769999H144.145C146.105 0.769999 148.065 1.12 150.025 1.82C152.032 2.52 153.875 3.61667 155.555 5.11C157.282 6.55667 158.658 8.35334 159.685 10.5C160.758 12.6467 161.295 15.1667 161.295 18.06C161.295 20.9067 160.758 23.4033 159.685 25.55C158.658 27.6967 157.282 29.4933 155.555 30.94C153.875 32.34 152.032 33.4133 150.025 34.16C148.018 34.86 146.035 35.21 144.075 35.21H135.115V44.38C135.115 45.2667 135.022 46.13 134.835 46.97C134.648 47.7633 134.182 48.4167 133.435 48.93C132.688 49.4433 131.452 49.7 129.725 49.7ZM135.115 24.57H144.145C145.172 24.57 146.175 24.36 147.155 23.94C148.182 23.4733 149.022 22.75 149.675 21.77C150.375 20.79 150.725 19.53 150.725 17.99C150.725 16.6833 150.445 15.54 149.885 14.56C149.325 13.58 148.532 12.81 147.505 12.25C146.525 11.69 145.382 11.41 144.075 11.41H135.115V24.57Z" fill="#8FCAF9"/>
<path d="M181.923 50.4C179.449 50.4 177.279 50.0967 175.413 49.49C173.593 48.8833 172.029 48.16 170.723 47.32C169.463 46.4333 168.459 45.57 167.713 44.73C166.966 43.89 166.453 43.26 166.173 42.84C165.379 41.8133 164.889 40.9267 164.703 40.18C164.516 39.3867 164.609 38.5933 164.983 37.8C165.403 37.0067 166.103 36.1433 167.083 35.21C168.063 34.37 168.973 33.9267 169.813 33.88C170.699 33.7867 171.563 33.9967 172.403 34.51C173.243 35.0233 174.059 35.7467 174.853 36.68C175.973 38.0333 177.069 38.99 178.143 39.55C179.263 40.0633 180.429 40.32 181.643 40.32C183.183 40.32 184.489 40.1333 185.563 39.76C186.636 39.3867 187.453 38.8033 188.013 38.01C188.573 37.17 188.853 36.12 188.853 34.86C188.853 33.8333 188.456 33.0167 187.663 32.41C186.916 31.7567 185.889 31.1967 184.583 30.73C183.323 30.2633 181.899 29.82 180.313 29.4C178.773 28.9333 177.233 28.3967 175.693 27.79C174.619 27.4167 173.593 26.95 172.613 26.39C171.633 25.83 170.699 25.2 169.813 24.5C168.926 23.8 168.156 22.96 167.503 21.98C166.896 21 166.406 19.88 166.033 18.62C165.706 17.36 165.543 15.9133 165.543 14.28C165.543 11.5267 166.219 9.07667 167.573 6.93C168.926 4.78333 170.793 3.10333 173.173 1.89C175.599 0.629999 178.376 0 181.503 0C183.603 0 185.423 0.186665 186.963 0.559999C188.549 0.933331 189.879 1.37666 190.953 1.89C192.026 2.40333 192.866 2.91667 193.473 3.43C194.126 3.89667 194.569 4.27 194.803 4.55C196.109 5.76333 196.833 6.81333 196.973 7.7C197.113 8.54 196.623 9.73 195.503 11.27C194.336 12.9033 193.169 13.8133 192.003 14C190.883 14.1867 189.599 13.79 188.153 12.81C187.593 12.2967 187.033 11.83 186.473 11.41C185.913 10.99 185.236 10.6633 184.443 10.43C183.696 10.15 182.693 10.01 181.433 10.01C180.686 10.01 179.986 10.1267 179.333 10.36C178.679 10.5467 178.119 10.8267 177.653 11.2C177.186 11.5733 176.813 12.04 176.533 12.6C176.253 13.1133 176.113 13.6967 176.113 14.35C176.113 15.4233 176.463 16.2867 177.163 16.94C177.909 17.5933 178.866 18.13 180.033 18.55C181.246 18.9233 182.576 19.2967 184.023 19.67C185.516 19.9967 187.033 20.3933 188.573 20.86C189.973 21.3267 191.326 21.91 192.633 22.61C193.939 23.2633 195.106 24.1033 196.133 25.13C197.159 26.1567 197.976 27.44 198.583 28.98C199.236 30.52 199.563 32.41 199.563 34.65C199.563 37.45 199.026 39.8533 197.953 41.86C196.879 43.8667 195.456 45.5 193.683 46.76C191.909 48.02 189.996 48.93 187.943 49.49C185.889 50.0967 183.883 50.4 181.923 50.4Z" fill="#8FCAF9"/>
<path fill-rule="evenodd" clip-rule="evenodd" d="M80.7545 6.57001C80.7545 3.2563 83.4408 0.570007 86.7545 0.570007H114.754C118.068 0.570007 120.754 3.2563 120.754 6.57001C120.754 9.88372 118.068 12.57 114.754 12.57H86.7545C83.4408 12.57 80.7545 9.88372 80.7545 6.57001ZM77.2545 24.57C77.2545 21.2563 79.9408 18.57 83.2545 18.57H111.254C114.568 18.57 117.254 21.2563 117.254 24.57C117.254 27.8837 114.568 30.57 111.254 30.57H83.2545C79.9408 30.57 77.2545 27.8837 77.2545 24.57ZM73.2545 42.57C73.2545 39.2563 75.9408 36.57 79.2545 36.57H107.254C110.568 36.57 113.254 39.2563 113.254 42.57C113.254 45.8837 110.568 48.57 107.254 48.57H79.2545C75.9408 48.57 73.2545 45.8837 73.2545 42.57Z" fill="#8FCAF9"/>
</svg>
