<svg width="287" height="54" viewBox="0 0 287 54" fill="none" xmlns="http://www.w3.org/2000/svg">
<path d="M42.7949 33.759C42.7949 35.2629 42.5996 36.6204 42.209 37.8313C41.8379 39.0227 41.3398 40.0774 40.7148 40.9954C40.0898 41.9133 39.3574 42.6946 38.5176 43.3391C37.6777 43.9836 36.8086 44.511 35.9102 44.9211C35.0117 45.3313 34.0938 45.634 33.1562 45.8293C32.2383 46.0247 31.3691 46.1223 30.5488 46.1223H1.16406V38.5051H30.5488C32.0137 38.5051 33.1465 38.0754 33.9473 37.2161C34.7676 36.3567 35.1777 35.2043 35.1777 33.759C35.1777 33.0559 35.0703 32.4114 34.8555 31.8254C34.6406 31.2395 34.3281 30.7317 33.918 30.302C33.5273 29.8723 33.0391 29.5403 32.4531 29.3059C31.8867 29.0715 31.252 28.9543 30.5488 28.9543H13.0293C11.7988 28.9543 10.4707 28.7395 9.04492 28.3098C7.61914 27.8606 6.29102 27.1477 5.06055 26.1711C3.84961 25.1946 2.83398 23.9153 2.01367 22.3333C1.21289 20.7512 0.8125 18.8176 0.8125 16.5325C0.8125 14.2473 1.21289 12.3235 2.01367 10.761C2.83398 9.17896 3.84961 7.89966 5.06055 6.9231C6.29102 5.927 7.61914 5.21411 9.04492 4.78442C10.4707 4.33521 11.7988 4.1106 13.0293 4.1106H38.957V11.7278H13.0293C11.584 11.7278 10.4512 12.1672 9.63086 13.0461C8.83008 13.925 8.42969 15.0872 8.42969 16.5325C8.42969 17.9973 8.83008 19.1594 9.63086 20.0188C10.4512 20.8586 11.584 21.2786 13.0293 21.2786H30.5488H30.6074C31.4277 21.2981 32.2969 21.4153 33.2148 21.6301C34.1328 21.8254 35.041 22.1379 35.9395 22.5676C36.8574 22.9973 37.7266 23.5442 38.5469 24.2083C39.3672 24.8528 40.0898 25.634 40.7148 26.552C41.3594 27.47 41.8672 28.5247 42.2383 29.7161C42.6094 30.9075 42.7949 32.2551 42.7949 33.759Z" fill="white"/>
<path d="M86.623 11.7278H69.8359V46.1223H62.2188V11.7278H45.4023V4.1106H86.623V11.7278Z" fill="white"/>
<path d="M126.789 28.9543H102.736V21.2786H126.789V28.9543ZM130.217 46.1223H102.736C101.682 46.1223 100.529 45.9368 99.2793 45.5657C98.0293 45.1946 96.8672 44.5891 95.793 43.7493C94.7383 42.8899 93.8496 41.7864 93.127 40.4387C92.4238 39.0715 92.0723 37.4016 92.0723 35.429V7.94849C92.0723 7.42114 92.1699 6.9231 92.3652 6.45435C92.5605 5.9856 92.8242 5.57544 93.1562 5.22388C93.5078 4.87231 93.918 4.59888 94.3867 4.40356C94.8555 4.20825 95.3633 4.1106 95.9102 4.1106H130.217V11.7278H99.6895V35.429C99.6895 36.425 99.9531 37.1868 100.48 37.7141C101.008 38.2415 101.779 38.5051 102.795 38.5051H130.217V46.1223Z" fill="white"/>
<path d="M179.465 21.6887C179.465 23.427 179.25 24.9797 178.82 26.3469C178.391 27.7141 177.805 28.925 177.062 29.9797C176.34 31.0149 175.5 31.9036 174.543 32.6458C173.586 33.3879 172.58 33.9934 171.525 34.4622C170.49 34.9309 169.436 35.2727 168.361 35.4875C167.307 35.7024 166.311 35.8098 165.373 35.8098H148.146V28.1926H165.373C166.35 28.1145 167.229 27.9192 168.01 27.6067C168.811 27.2747 169.494 26.8352 170.061 26.2883C170.627 25.7415 171.066 25.0872 171.379 24.3254C171.691 23.5442 171.848 22.6653 171.848 21.6887V18.2317C171.75 17.2747 171.545 16.3958 171.232 15.595C170.92 14.7942 170.49 14.1106 169.943 13.5442C169.416 12.9778 168.771 12.5383 168.01 12.2258C167.248 11.8938 166.369 11.7278 165.373 11.7278H148.205C147.189 11.7278 146.418 11.9915 145.891 12.5188C145.363 13.0461 145.1 13.8079 145.1 14.804V46.1223H137.482V14.804C137.482 12.8508 137.834 11.1907 138.537 9.82349C139.26 8.4563 140.148 7.35278 141.203 6.51294C142.277 5.6731 143.439 5.06763 144.689 4.69653C145.939 4.30591 147.092 4.1106 148.146 4.1106H165.373C167.092 4.1106 168.635 4.33521 170.002 4.78442C171.369 5.21411 172.57 5.80005 173.605 6.54224C174.66 7.26489 175.549 8.10474 176.271 9.06177C177.014 10.0188 177.619 11.0247 178.088 12.0793C178.576 13.1145 178.928 14.1692 179.143 15.2434C179.357 16.2981 179.465 17.2942 179.465 18.2317V21.6887Z" fill="white"/>
<path d="M227.863 21.6887C227.863 23.427 227.648 24.9797 227.219 26.3469C226.789 27.7141 226.203 28.925 225.461 29.9797C224.738 31.0149 223.898 31.9036 222.941 32.6458C221.984 33.3879 220.979 33.9934 219.924 34.4622C218.889 34.9309 217.834 35.2727 216.76 35.4875C215.705 35.7024 214.709 35.8098 213.771 35.8098H196.545V28.1926H213.771C214.748 28.1145 215.627 27.9192 216.408 27.6067C217.209 27.2747 217.893 26.8352 218.459 26.2883C219.025 25.7415 219.465 25.0872 219.777 24.3254C220.09 23.5442 220.246 22.6653 220.246 21.6887V18.2317C220.148 17.2747 219.943 16.3958 219.631 15.595C219.318 14.7942 218.889 14.1106 218.342 13.5442C217.814 12.9778 217.17 12.5383 216.408 12.2258C215.646 11.8938 214.768 11.7278 213.771 11.7278H196.604C195.588 11.7278 194.816 11.9915 194.289 12.5188C193.762 13.0461 193.498 13.8079 193.498 14.804V46.1223H185.881V14.804C185.881 12.8508 186.232 11.1907 186.936 9.82349C187.658 8.4563 188.547 7.35278 189.602 6.51294C190.676 5.6731 191.838 5.06763 193.088 4.69653C194.338 4.30591 195.49 4.1106 196.545 4.1106H213.771C215.49 4.1106 217.033 4.33521 218.4 4.78442C219.768 5.21411 220.969 5.80005 222.004 6.54224C223.059 7.26489 223.947 8.10474 224.67 9.06177C225.412 10.0188 226.018 11.0247 226.486 12.0793C226.975 13.1145 227.326 14.1692 227.541 15.2434C227.756 16.2981 227.863 17.2942 227.863 18.2317V21.6887Z" fill="white"/>
<g clip-path="url(#clip0_208_137)">
<path d="M243.895 23.2499L253.937 33.2925C254.326 33.6819 254.758 33.9737 255.231 34.1679C255.704 34.3622 256.184 34.4659 256.672 34.4791C257.159 34.4644 257.64 34.3593 258.114 34.1636C258.587 33.9679 259.02 33.6748 259.41 33.2843L286.669 6.0249L281.246 0.601919L256.686 25.1626L249.334 17.8106L243.895 23.2499Z" fill="#EEAA00"/>
<path fill-rule="evenodd" clip-rule="evenodd" d="M267.081 13.1851C266.435 12.7029 265.709 12.3086 264.904 12.002C263.693 11.5137 262.355 11.2695 260.891 11.2695H250.578C249.094 11.2695 247.736 11.5137 246.506 12.002C245.295 12.4707 244.25 13.1445 243.371 14.0234C242.492 14.8828 241.809 15.9277 241.32 17.1582C240.852 18.3691 240.617 19.7266 240.617 21.2305V29.2578C240.617 30.7617 240.852 32.1289 241.32 33.3594C241.809 34.5703 242.492 35.6152 243.371 36.4941C244.25 37.3535 245.295 38.0273 246.506 38.5156C247.736 38.9844 249.094 39.2188 250.578 39.2188H260.832C262.316 39.2188 263.664 38.9844 264.875 38.5156C266.105 38.0273 267.16 37.3535 268.039 36.4941C268.918 35.6152 269.592 34.5703 270.061 33.3594C270.549 32.1289 270.793 30.7617 270.793 29.2578V23.3516L277.805 16.3394C278.208 17.8801 278.41 19.5105 278.41 21.2305V29.2578C278.41 31.8164 277.971 34.1699 277.092 36.3184C276.213 38.4668 274.992 40.3223 273.43 41.8848C271.867 43.4473 270.012 44.668 267.863 45.5469C265.734 46.4062 263.41 46.8359 260.891 46.8359H250.578C248.059 46.8359 245.725 46.4062 243.576 45.5469C241.428 44.668 239.572 43.4473 238.01 41.8848C236.447 40.3223 235.217 38.4668 234.318 36.3184C233.439 34.1699 233 31.8164 233 29.2578V21.2305C233 18.6914 233.439 16.3477 234.318 14.1992C235.217 12.0312 236.447 10.1758 238.01 8.63281C239.572 7.07031 241.428 5.84961 243.576 4.9707C245.725 4.0918 248.059 3.65234 250.578 3.65234H260.891C263.41 3.65234 265.734 4.0918 267.863 4.9707C269.599 5.68067 271.143 6.61365 272.496 7.76966L267.081 13.1851Z" fill="#2277FF"/>
</g>
<defs>
<clipPath id="clip0_208_137">
<rect width="54" height="54" fill="white" transform="translate(233)"/>
</clipPath>
</defs>
</svg>
